HIERARCHY
ROOT joint_Root
{
	OFFSET 0.0 0.0 0.0
	CHANNELS 6 Xposition Yposition Zposition Zrotation Xrotation Yrotation 
	JOINT Hips
	{
		OFFSET -0.726466 93.3139 -2.00062
		CHANNELS 6 Xposition Yposition Zposition Zrotation Xrotation Yrotation 
		JOINT Spine
		{
			OFFSET 15.7357 0.0 0.0
			CHANNELS 6 Xposition Yposition Zposition Zrotation Xrotation Yrotation 
			JOINT Chest
			{
				OFFSET 8.98455 -0.406207 0.0
				CHANNELS 6 Xposition Yposition Zposition Zrotation Xrotation Yrotation 
				JOINT Neck
				{
					OFFSET 16.3773 0.0 0.0
					CHANNELS 6 Xposition Yposition Zposition Zrotation Xrotation Yrotation 
					JOINT Head
					{
						OFFSET 6.45672 0.0 0.0
						CHANNELS 6 Xposition Yposition Zposition Zrotation Xrotation Yrotation 
						End Site
						{
							OFFSET 0.0 0.0 0.0
						}
					}
				}
				JOINT Shoulder_L
				{
					OFFSET 12.9942 -0.242716 4.98039
					CHANNELS 6 Xposition Yposition Zposition Zrotation Xrotation Yrotation 
					JOINT UpperArm_L
					{
						OFFSET 5.34809 0.0 0.0
						CHANNELS 6 Xposition Yposition Zposition Zrotation Xrotation Yrotation 
						JOINT LowerArm_L
						{
							OFFSET 24.3286 1.87007e-05 0.0
							CHANNELS 6 Xposition Yposition Zposition Zrotation Xrotation Yrotation 
							JOINT Hand_L
							{
								OFFSET 22.2916 0.0 0.0
								CHANNELS 6 Xposition Yposition Zposition Zrotation Xrotation Yrotation 
								End Site
								{
									OFFSET 0.0 0.0 0.0
								}
							}
						}
					}
				}
				JOINT Shoulder_R
				{
					OFFSET 12.9945 -0.242716 -4.98039
					CHANNELS 6 Xposition Yposition Zposition Zrotation Xrotation Yrotation 
					JOINT UpperArm_R
					{
						OFFSET -5.34813 0.0 0.0
						CHANNELS 6 Xposition Yposition Zposition Zrotation Xrotation Yrotation 
						JOINT LowerArm_R
						{
							OFFSET -24.3289 0.000322201 0.0
							CHANNELS 6 Xposition Yposition Zposition Zrotation Xrotation Yrotation 
							JOINT Hand_R
							{
								OFFSET -22.2915 -0.000108084 0.0
								CHANNELS 6 Xposition Yposition Zposition Zrotation Xrotation Yrotation 
								End Site
								{
									OFFSET 0.0 0.0 0.0
								}
							}
						}
					}
				}
			}
		}
		JOINT UpperLeg_L
		{
			OFFSET -2.19248 -6.46944 0.0
			CHANNELS 6 Xposition Yposition Zposition Zrotation Xrotation Yrotation 
			JOINT LowerLeg_L
			{
				OFFSET 39.0811 0.0 -1.23785e-05
				CHANNELS 6 Xposition Yposition Zposition Zrotation Xrotation Yrotation 
				JOINT Foot_L
				{
					OFFSET 40.9854 0.0 -1.26872e-05
					CHANNELS 6 Xposition Yposition Zposition Zrotation Xrotation Yrotation 
					JOINT Toes_L
					{
						OFFSET 11.7543 0.0 0.0
						CHANNELS 6 Xposition Yposition Zposition Zrotation Xrotation Yrotation 
						End Site
						{
							OFFSET 0.0 0.0 0.0
						}
					}
				}
			}
		}
		JOINT UpperLeg_R
		{
			OFFSET -2.19251 6.46944 0.0
			CHANNELS 6 Xposition Yposition Zposition Zrotation Xrotation Yrotation 
			JOINT LowerLeg_R
			{
				OFFSET -39.0811 -0.00228153 -0.0401928
				CHANNELS 6 Xposition Yposition Zposition Zrotation Xrotation Yrotation 
				JOINT Foot_R
				{
					OFFSET -40.9854 0.0 0.0
					CHANNELS 6 Xposition Yposition Zposition Zrotation Xrotation Yrotation 
					JOINT Toes_R
					{
						OFFSET -11.7543 0.0 0.0
						CHANNELS 6 Xposition Yposition Zposition Zrotation Xrotation Yrotation 
						End Site
						{
							OFFSET 0.0 0.0 0.0
						}
					}
				}
			}
		}
	}
}
MOTION
Frames:	6
Frame Time:	0.0333333
0.000000 0.000000 0.000000 0.000000 0.000000 -0.000000 -0.211038 92.329700 -1.509170 88.077200 -0.198998 5.293670 15.735700 0.000005 -0.000001 87.346100 86.027800 -87.193000 8.984550 -0.406207 -0.000000 0.170393 -0.377893 0.306615 16.377300 -0.000001 -0.000001 6.312280 -2.367150 0.627682 6.456720 -0.000001 -0.000000 7.485410 -1.526280 0.754480 12.994200 -0.242716 4.980390 -87.031700 -10.939300 -74.717300 5.348090 -0.000007 -0.000001 -82.051300 -24.554900 -92.977000 24.328600 0.000019 0.000005 23.378600 5.329930 -77.872800 22.291600 -0.000001 0.000005 23.471500 5.528770 -7.740680 12.994500 -0.242716 -4.980390 90.827700 -2.947980 -74.309400 -5.348130 -0.000001 -0.000004 -71.421300 -21.762000 -101.478000 -24.328900 0.000322 -0.000009 25.545700 11.894000 -66.674800 -22.291500 -0.000108 -0.000004 25.728300 5.352690 -1.458240 -2.192480 -6.469440 -0.000000 -175.866000 -5.869320 -2.222220 39.081100 -0.000007 -0.000012 -0.096455 0.224936 23.210200 40.985400 -0.000006 -0.000013 0.180594 3.415910 -65.978200 11.754300 -0.000000 0.000003 -0.000031 -0.000368 -16.591900 -2.192510 6.469440 -0.000001 179.145000 12.780800 -179.788000 -39.081100 -0.002282 -0.040193 -0.047676 0.141148 19.865300 -40.985400 0.000008 0.000006 2.355200 6.671480 -65.086800 -11.754300 -0.000006 -0.000006 -0.007640 -0.085069 -20.036800
0.000000 0.000000 0.000000 0.000000 0.000000 -0.000000 -0.194301 92.338200 -1.475460 88.038200 -0.240877 5.216830 15.735700 0.000005 -0.000001 87.389000 86.039700 -87.227000 8.984550 -0.406207 -0.000000 0.146941 -0.371492 0.324292 16.377300 -0.000001 -0.000001 6.293440 -2.396600 0.626900 6.456720 -0.000001 -0.000000 7.399080 -1.510860 0.860812 12.994200 -0.242716 4.980390 -87.008400 -10.918300 -74.574900 5.348090 -0.000007 -0.000001 -81.913500 -24.678700 -93.004600 24.328600 0.000019 0.000005 23.003100 5.383140 -77.538900 22.291600 -0.000001 0.000005 23.395800 5.529310 -7.764870 12.994500 -0.242716 -4.980390 90.800000 -2.823830 -74.174500 -5.348130 -0.000001 -0.000004 -70.879900 -22.085900 -101.366000 -24.328900 0.000322 -0.000009 25.268500 11.833500 -66.518900 -22.291500 -0.000108 -0.000004 25.774200 5.353700 -1.488710 -2.192480 -6.469440 -0.000000 -175.840000 -5.890230 -2.237450 39.081100 -0.000007 -0.000012 -0.097932 0.228938 23.159600 40.985400 -0.000006 -0.000013 0.177608 3.371210 -65.986900 11.754300 -0.000000 0.000003 -0.000035 -0.000411 -16.593600 -2.192510 6.469440 -0.000001 179.213000 12.751900 -179.803000 -39.081100 -0.002282 -0.040193 -0.042774 0.128218 19.774300 -40.985400 0.000008 0.000006 2.462870 6.641540 -65.074900 -11.754300 -0.000006 -0.000006 -0.007465 -0.083605 -19.977000
0.000000 0.000000 0.000000 0.000000 0.000000 -0.000000 -0.177075 92.331500 -1.439120 88.030900 -0.263209 5.163740 15.735700 0.000005 -0.000001 87.195900 86.029600 -87.027200 8.984550 -0.406207 -0.000000 0.165784 -0.399545 0.337797 16.377300 -0.000001 -0.000001 6.209890 -2.388070 0.571189 6.456720 -0.000001 -0.000000 7.345520 -1.507720 0.918540 12.994200 -0.242716 4.980390 -87.006700 -10.796800 -74.403500 5.348090 -0.000007 -0.000001 -81.616300 -24.887100 -92.675900 24.328600 0.000019 0.000005 22.139600 5.122400 -77.623200 22.291600 -0.000001 0.000005 23.271900 5.530070 -7.798250 12.994500 -0.242716 -4.980390 90.774100 -2.713290 -74.070700 -5.348130 -0.000001 -0.000004 -70.016300 -22.558100 -100.859000 -24.328900 0.000322 -0.000009 24.917000 11.477300 -66.814500 -22.291500 -0.000108 -0.000004 25.861500 5.353720 -1.489260 -2.192480 -6.469440 -0.000000 -175.835000 -5.976290 -2.292940 39.081100 -0.000007 -0.000012 -0.096440 0.224971 23.203900 40.985400 -0.000006 -0.000013 0.208410 3.459150 -66.028200 11.754300 -0.000000 0.000003 -0.000034 -0.000404 -16.593300 -2.192510 6.469440 -0.000001 179.204000 12.779600 -179.846000 -39.081100 -0.002282 -0.040193 -0.044662 0.133349 19.790700 -40.985400 0.000008 0.000006 2.395210 6.688170 -65.090300 -11.754300 -0.000006 -0.000006 -0.007697 -0.085541 -20.056100
0.000000 0.000000 0.000000 0.000000 0.000000 -0.000000 -0.149345 92.345500 -1.414260 88.046200 -0.289793 5.062470 15.735700 0.000005 -0.000001 87.103700 86.029300 -86.930000 8.984550 -0.406207 -0.000000 0.165940 -0.412685 0.347739 16.377300 -0.000001 -0.000001 6.031430 -2.404410 0.527388 6.456720 -0.000001 -0.000000 7.350890 -1.494620 0.883821 12.994200 -0.242716 4.980390 -87.037700 -10.587900 -74.271000 5.348090 -0.000007 -0.000001 -80.797700 -25.221500 -91.509200 24.328600 0.000019 0.000005 19.776600 4.154360 -78.611900 22.291600 -0.000001 0.000005 23.368700 5.539710 -8.230450 12.994500 -0.242716 -4.980390 90.727300 -2.514670 -73.862400 -5.348130 -0.000001 -0.000004 -68.601400 -23.077400 -99.682500 -24.328900 0.000322 -0.000009 24.149200 10.497500 -67.887300 -22.291500 -0.000108 -0.000004 25.759300 5.345170 -1.231350 -2.192480 -6.469440 -0.000000 -175.890000 -5.969490 -2.306480 39.081100 -0.000007 -0.000012 -0.095658 0.224473 23.081100 40.985400 -0.000006 -0.000013 0.211158 3.374290 -65.993500 11.754300 -0.000000 0.000003 -0.000033 -0.000396 -16.593000 -2.192510 6.469440 -0.000001 179.207000 12.730800 -179.892000 -39.081100 -0.002282 -0.040193 -0.041616 0.125469 19.705600 -40.985400 0.000008 0.000006 2.490680 6.674910 -65.076800 -11.754300 -0.000006 -0.000006 -0.007638 -0.085052 -20.036100
0.000000 0.000000 0.000000 0.000000 0.000000 -0.000000 -0.120552 92.347700 -1.384790 88.032300 -0.371891 4.931350 15.735700 0.000005 -0.000001 87.090900 86.021800 -86.901200 8.984550 -0.406207 -0.000000 0.180884 -0.416250 0.379922 16.377300 -0.000001 -0.000001 5.785240 -2.416380 0.515225 6.456720 -0.000001 -0.000000 7.260170 -1.436540 0.818964 12.994200 -0.242716 4.980390 -87.098900 -10.264800 -74.124900 5.348090 -0.000007 -0.000001 -79.224800 -25.830400 -89.136000 24.328600 0.000019 0.000005 13.381000 2.142700 -81.084300 22.291600 -0.000001 0.000005 23.294100 5.577770 -10.092200 12.994500 -0.242716 -4.980390 90.653600 -2.212850 -73.539500 -5.348130 -0.000001 -0.000004 -66.829600 -23.492700 -97.673900 -24.328900 0.000322 -0.000009 22.255900 8.506670 -70.131900 -22.291500 -0.000108 -0.000004 24.169100 5.323500 -0.588850 -2.192480 -6.469440 -0.000000 -175.910000 -5.971580 -2.402370 39.081100 -0.000007 -0.000012 -0.095759 0.224885 23.064900 40.985400 -0.000006 -0.000013 0.216936 3.319440 -66.010700 11.754300 -0.000000 0.000003 -0.000034 -0.000400 -16.593200 -2.192510 6.469440 -0.000001 179.231000 12.676600 -179.997000 -39.081100 -0.002282 -0.040193 -0.041099 0.124229 19.675900 -40.985400 0.000008 0.000006 2.527700 6.700750 -65.081000 -11.754300 -0.000006 -0.000006 -0.007440 -0.083394 -19.968400
0.000000 0.000000 0.000000 0.000000 0.000000 -0.000000 -0.090099 92.357000 -1.347820 88.055300 -0.428566 4.818040 15.735700 0.000005 -0.000001 87.018500 86.003900 -86.840000 8.984550 -0.406207 -0.000000 0.215983 -0.427345 0.357487 16.377300 -0.000001 -0.000001 5.516620 -2.452360 0.581217 6.456720 -0.000001 -0.000000 7.086700 -1.416490 0.798869 12.994200 -0.242716 4.980390 -87.218800 -9.768290 -74.022100 5.348090 -0.000007 -0.000001 -76.666300 -26.555200 -85.431100 24.328600 0.000019 0.000005 6.592180 0.500305 -85.714500 22.291600 -0.000001 0.000005 22.670900 5.603560 -11.560000 12.994500 -0.242716 -4.980390 90.534200 -1.763290 -73.141100 -5.348130 -0.000001 -0.000004 -65.002300 -23.575700 -94.716200 -24.328900 0.000322 -0.000009 17.931500 5.453650 -73.647800 -22.291500 -0.000108 -0.000004 20.522600 5.296420 0.179343 -2.192480 -6.469440 -0.000000 -175.977000 -5.945280 -2.433360 39.081100 -0.000007 -0.000012 -0.094741 0.223574 22.965200 40.985400 -0.000006 -0.000013 0.217861 3.217740 -65.993100 11.754300 -0.000000 0.000003 -0.000030 -0.000366 -16.591800 -2.192510 6.469440 -0.000001 179.202000 12.628600 179.950000 -39.081100 -0.002282 -0.040193 -0.041541 0.126104 19.583600 -40.985400 0.000008 0.000006 2.419950 6.749330 -65.035600 -11.754300 -0.000006 -0.000006 -0.007224 -0.081571 -19.894000
